<svg xmlns="http://www.w3.org/2000/svg" version="1.1" xmlns:xlink="http://www.w3.org/1999/xlink" width="24" height="24"><svg xmlns="http://www.w3.org/2000/svg" version="1.1" xmlns:xlink="http://www.w3.org/1999/xlink" width="24" height="24"><svg xmlns="http://www.w3.org/2000/svg" width="24" height="24" viewBox="0 0 295 301" fill="#ef4444">
  <path d="M 233.769 32.433 C 233.769 32.429 233.769 32.426 233.769 32.422 L 233.769 12.433 L 253.765 12.433 C 253.766 12.433 253.768 12.433 253.769 12.433 L 264.933 12.433 C 275.979 12.433 284.933 21.387 284.933 32.433 L 284.933 268.221 C 284.933 279.267 275.979 288.221 264.933 288.221 L 233.769 288.221 Z" fill-opacity="0.8"></path>
  <path d="M 167.932 223.112 L 167.938 34.282 L 167.939 12.432 C 167.94 12.432 199.102 12.432 199.103 12.432 C 199.104 12.432 219.102 12.432 219.103 12.432 L 219.102 28.896 C 219.102 28.898 219.1 99.287 219.098 158.694 C 219.098 158.694 219.099 158.694 219.099 158.694 C 219.099 214.549 219.099 270.817 219.099 284.882 C 206.079 283.483 193.83 277.059 184.502 266.607 C 174.407 255.295 168.522 240.148 167.977 224.222 C 167.947 223.855 167.932 223.485 167.932 223.112 Z"></path>
  <path d="M 7.492 268.221 C 7.492 268.225 7.492 268.228 7.492 268.232 L 7.492 288.221 L 27.488 288.221 C 27.489 288.221 27.491 288.221 27.492 288.221 L 38.656 288.221 C 49.702 288.221 58.656 279.267 58.656 268.221 L 58.656 32.433 C 58.656 21.387 49.702 12.433 38.656 12.433 L 7.492 12.433 L 7.492 268.221 Z" transform="scale(-1, -1) translate(-66.148, -300.654)" fill-opacity="0.8"></path>
  <path d="M 73.322 74.202 L 73.328 263.032 L 73.329 284.882 C 73.33 284.882 104.492 284.882 104.493 284.882 C 104.494 284.882 124.492 284.882 124.493 284.882 L 124.492 268.418 C 124.492 268.416 124.49 198.027 124.488 138.62 C 124.488 138.62 124.489 138.62 124.489 138.62 C 124.489 82.765 124.489 26.497 124.489 12.432 C 111.469 13.831 99.22 20.255 89.892 30.707 C 79.797 42.019 73.912 57.166 73.367 73.092 C 73.337 73.459 73.322 73.829 73.322 74.202 Z" transform="scale(-1, -1) translate(-197.816, -297.314)"></path>
</svg></svg><style>@media (prefers-color-scheme: light) { :root { filter: none; } }
@media (prefers-color-scheme: dark) { :root { filter: none; } }
</style></svg>